<svg xmlns="http://www.w3.org/2000/svg" xmlns:xlink="http://www.w3.org/1999/xlink" width="500" zoomAndPan="magnify" viewBox="0 0 375 374.999991" height="500" preserveAspectRatio="xMidYMid meet" version="1.0"><defs><clipPath id="id1"><path d="M 3 3.890625 L 372 3.890625 L 372 370.960938 L 3 370.960938 Z M 3 3.890625 " clip-rule="nonzero"/></clipPath></defs><g clip-path="url(#id1)"><path fill="#f81d1d" d="M 365.597656 187.425781 C 365.597656 168.273438 375.144531 147.945312 369.269531 130.699219 C 363.246094 112.792969 342.828125 101.785156 331.59375 86.890625 C 320.207031 71.84375 315.507812 49.902344 299.867188 38.96875 C 284.371094 28.179688 261.234375 30.601562 242.65625 24.730469 C 224.660156 19.15625 207.550781 3.890625 187.648438 3.890625 C 167.746094 3.890625 150.558594 19.082031 132.640625 24.730469 C 114.058594 30.53125 90.851562 28.109375 75.355469 38.96875 C 59.710938 49.902344 55.011719 71.84375 43.628906 86.890625 C 32.316406 101.785156 11.972656 112.792969 5.878906 130.699219 C 0.078125 147.945312 9.550781 168.273438 9.550781 187.425781 C 9.550781 206.578125 0.00390625 226.90625 5.878906 244.152344 C 11.902344 262.058594 32.316406 273.066406 43.554688 287.964844 C 54.9375 303.007812 59.636719 324.949219 75.28125 335.882812 C 90.777344 346.746094 113.910156 344.324219 132.566406 350.121094 C 150.558594 355.699219 167.671875 370.960938 187.574219 370.960938 C 207.476562 370.960938 224.660156 355.769531 242.582031 350.121094 C 261.160156 344.324219 284.371094 346.746094 299.867188 335.882812 C 315.507812 324.949219 320.207031 303.007812 331.59375 287.964844 C 342.902344 273.066406 363.246094 262.058594 369.269531 244.152344 C 375.144531 226.835938 365.597656 206.507812 365.597656 187.425781 " fill-opacity="1" fill-rule="nonzero"/></g></svg>